{"title":"San.Andreas.2015.BRRip.720p.x264.AAC-PRiSTiNE [P2PDL]","uid":12495664,"size":791154171,"categoryP":"video","categoryS":"hd___movies","magnet":"?xt=urn:btih:d2419e61cb25239db06943a54a9b80cee40f3180&amp;dn=San.Andreas.2015.BRRip.720p.x264.AAC-PRiSTiNE+%5BP2PDL%5D&amp;tr=udp%3A%2F%2Ftracker.leechers-paradise.org%3A6969&amp;tr=udp%3A%2F%2Fzer0day.ch%3A1337&amp;tr=udp%3A%2F%2Fopen.demonii.com%3A1337&amp;tr=udp%3A%2F%2Ftracker.coppersurfer.tk%3A6969&amp;tr=udp%3A%2F%2Fexodus.desync.com%3A6969","seeders":2,"leechers":1,"uploader":"VYTOP2PDL","files":7,"time":1443262253,"description":"\n                                                                                                  \r\n                                                                                                   \r\nPPPPPPPPPPPPPPPPP   222222222222222   PPPPPPPPPPPPPPPPP  DDDDDDDDDDDDD     LLLLLLLLLLL             \r\nP::::::::::::::::P 2::::::MAKE!::::22 P:::::::SAVE!::::P D::::SHARE!::DDD  L:::::::::L             \r\nP::::::PPPPPP:::::P2::::::222222:::::2P::::::PPPPPP:::::PD:::::::::::::::DDL:::::::::L             \r\nPP:::::P     P:::::2222222     2:::::2PP:::::P     P:::::DDD:::::DDDDD:::::LL:::::::LL             \r\n  P::::P     P:::::P           2:::::2  P::::P     P:::::P D:::::D    D:::::DL:::::L               \r\n  P::::P     P:::::P           2:::::2  P::::P     P:::::P D:::::D     D:::::L:::::L               \r\n  P::::PPPPPP:::::P         2222::::2   P::::PPPPPP:::::P  D:::::D     D:::::L:::::L               \r\n  P:::::::::::::PP     22222::::::22    P:::::::::::::PP   D:::::D     D:::::L:::::L               \r\n  P::::PPPPPPPPP     22::::::::222      P::::PPPPPPPPP     D:::::D     D:::::L:::::L               \r\n  P::::P            2:::::22222         P::::P             D:::::D     D:::::L:::::L               \r\n  P::::P           2:::::2              P::::P             D:::::D     D:::::L:::::L               \r\n  P::::P           2:::::2              P::::P             D:::::D    D:::::DL:::::L         LLLLLL\r\nPP::::::PP         2:::::2       22222PP::::::PP         DDD:::::DDDDD:::::LL:::::::LLLLLLLLL:::::L\r\nP::::::::P         2::::::2222222:::::P::::::::P         D:::::::::::::::DDL::::::::::::::::::::::L\r\nP::::::::P         2:::::Vitamin_X::::P::VYTO::P         D::::ViZNU:::DDD  L::::::::::::::::::::::L\r\nPPPPPPPPP PRiSTiNE 2222222222222222222PPPPPPPPP PRiSTiNE DDDDDDDDDDDDD     LLLLLLLLLLLLLLLLLLLLLLLL\r\n                                                                                                   \r\n                                                                                                   \r\n                                                                                                    \r\n\r\nSan.Andreas.2015.BRRip.720p.x264.AAC-PRiSTiNE\r\n\r\n\r\nGenre:  Action, Drama, Thriller \nhttp://www.imdb.com/title/tt2126355/\r\n\r\n\r\nGeneral\r\nFormat                         : MPEG-4\r\nFile size                      : 746 MiB\r\nDuration                       : 1h 54mn\r\nOverall bit rate               : 912 Kbps\r\n\r\nVideo\r\nFormat                         : AVC\r\nBit rate                       : 829 Kbps\r\nWidth                          : 1 264 pixels\r\nHeight                         : 528 pixels\r\nDisplay aspect ratio           : 2.40:1\r\nFrame rate mode                : Constant\r\nChroma subsampling             : 4:2:0\r\nBit depth                      : 8 bits\r\nStream size                    : 679 MiB (91%)\r\nWriting library                : x264 core 148 r2597\r\n\r\nAudio\r\nFormat                         : AAC\r\nBit rate mode                  : Variable\r\nBit rate                       : 80.0 Kbps\r\nChannel(s)                     : 2 channels\r\nChannel positions              : Front: L R\r\nSampling rate                  : 48.0 KHz \r\nStream size                    : 65.5 MiB (9%)\r\nLanguage                       : English\r\n\r\nSubtitle                       : Yes (English)\r\nSource                     \t   : 720p.BluRay.x264-SPARKS\r\n\r\nScreenshots:\r\n \nhttp://ititli.com/dh \nhttp://ititli.com/ds \nhttp://ititli.com/dY \nhttp://ititli.com/d4 \nhttp://ititli.com/dK \nhttp://ititli.com/dV \nhttp://ititli.com/dt \nhttp://ititli.com/dL \nhttp://ititli.com/dd \nhttp://ititli.com/d0 \nhttp://ititli.com/dA \nhttp://ititli.com/dl \nhttp://ititli.com/dm \nhttp://ititli.com/dx \nhttp://ititli.com/d7\r\n\r\n----------------------------------------------------------------------------------------------------\r\n\r\n\r\nEncoder Notes: Looking For Early Access To Anything You Can Provide DVDScr, R5, DVDR, BluRay, Direct\r\nAudio, Music Releases and Seedboxes. If You Got anything to offer please contact us.\r\n\r\nSupport us by donating BC - 1FgwdzPsd1y25Gea8wP1qni35uGCtmkRCD","torrent":{"xt":"urn:btih:d2419e61cb25239db06943a54a9b80cee40f3180","amp;dn":"San.Andreas.2015.BRRip.720p.x264.AAC-PRiSTiNE+%5BP2PDL%5D","amp;tr":["udp%3A%2F%2Ftracker.leechers-paradise.org%3A6969","udp%3A%2F%2Fzer0day.ch%3A1337","udp%3A%2F%2Fopen.demonii.com%3A1337","udp%3A%2F%2Ftracker.coppersurfer.tk%3A6969","udp%3A%2F%2Fexodus.desync.com%3A6969"],"infoHash":"d2419e61cb25239db06943a54a9b80cee40f3180","infoHashBuffer":{"type":"Buffer","data":[210,65,158,97,203,37,35,157,176,105,67,165,74,155,128,206,228,15,49,128]},"announce":[],"urlList":[]}}